<?xml version="1.0" encoding="utf-8"?>
<!-- Generator: Adobe Illustrator 19.0.0, SVG Export Plug-In . SVG Version: 6.00 Build 0)  -->
<svg version="1.1" id="Layer_1" xmlns="http://www.w3.org/2000/svg" xmlns:xlink="http://www.w3.org/1999/xlink" x="0px" y="0px"
	 viewBox="-441 251 60 60" style="enable-background:new -441 251 60 60;" xml:space="preserve">
<style type="text/css">
	.st0{fill:#FFFFFF;}
	.st1{fill:none;stroke:#FFFFFF;stroke-width:3;}
</style>
<path class="st0" d="M-401.1,272.5c0-1-0.8-1.8-1.8-1.8s-1.8,0.8-1.8,1.8c0,1,0.8,1.8,1.8,1.8S-401.1,273.5-401.1,272.5z"/>
<path class="st0" d="M-398.7,286.6c-0.1,1.5-0.3,2.3-0.5,2.8c-0.3,0.7-0.6,1.2-1.1,1.7c-0.5,0.5-1,0.8-1.7,1.1
	c-0.5,0.2-1.3,0.5-2.8,0.5c-1.6,0.1-2.1,0.1-6.1,0.1c-4,0-4.5,0-6.1-0.1c-1.5-0.1-2.3-0.3-2.8-0.5c-0.7-0.3-1.2-0.6-1.7-1.1
	c-0.5-0.5-0.9-1-1.1-1.7c-0.2-0.5-0.5-1.3-0.5-2.8c-0.1-1.6-0.1-2.1-0.1-6.1c0-4,0-4.5,0.1-6.1c0.1-1.5,0.3-2.3,0.5-2.8
	c0.3-0.7,0.6-1.2,1.1-1.7c0.5-0.5,1-0.8,1.7-1.1c0.5-0.2,1.3-0.4,2.8-0.5c1.6-0.1,2.1-0.1,6.1-0.1c4,0,4.5,0,6.1,0.1
	c1.5,0.1,2.3,0.3,2.8,0.5c0.7,0.3,1.2,0.6,1.7,1.1c0.5,0.5,0.9,1,1.1,1.7c0.2,0.5,0.5,1.3,0.5,2.8c0.1,1.6,0.1,2.1,0.1,6.1
	C-398.6,284.5-398.6,285-398.7,286.6z M-396,274.3c-0.1-1.6-0.3-2.7-0.7-3.6c-0.4-1-0.9-1.8-1.7-2.7c-0.8-0.8-1.7-1.3-2.7-1.7
	c-1-0.4-2.1-0.6-3.7-0.7c-1.6-0.1-2.1-0.1-6.2-0.1c-4.1,0-4.6,0-6.2,0.1c-1.6,0.1-2.7,0.3-3.7,0.7c-1,0.4-1.8,0.9-2.7,1.7
	c-0.8,0.8-1.4,1.7-1.7,2.7c-0.4,1-0.6,2-0.7,3.6c-0.1,1.6-0.1,2.1-0.1,6.2c0,4.1,0,4.6,0.1,6.2c0.1,1.6,0.3,2.7,0.7,3.6
	c0.4,1,0.9,1.8,1.7,2.7c0.8,0.8,1.7,1.3,2.7,1.7c1,0.4,2.1,0.6,3.7,0.7c1.6,0.1,2.1,0.1,6.2,0.1c4.1,0,4.6,0,6.2-0.1
	c1.6-0.1,2.7-0.3,3.7-0.7c1-0.4,1.8-0.9,2.7-1.7c0.8-0.8,1.4-1.7,1.7-2.7c0.4-1,0.6-2,0.7-3.6c0.1-1.6,0.1-2.1,0.1-6.2
	C-395.9,276.4-395.9,275.9-396,274.3z"/>
<path class="st0" d="M-411,285.5c-2.8,0-5-2.2-5-5c0-2.8,2.3-5,5-5c2.8,0,5,2.2,5,5C-406,283.3-408.2,285.5-411,285.5z M-411,272.8
	c-4.3,0-7.8,3.5-7.8,7.7c0,4.3,3.5,7.7,7.8,7.7c4.3,0,7.8-3.4,7.8-7.7C-403.2,276.2-406.7,272.8-411,272.8z"/>
<rect x="-439.5" y="252.5" class="st1" width="57" height="57"/>
</svg>
