<?xml version="1.0" encoding="utf-8"?>
<!-- Generator: Adobe Illustrator 19.0.0, SVG Export Plug-In . SVG Version: 6.00 Build 0)  -->
<svg version="1.1" id="Layer_1" xmlns="http://www.w3.org/2000/svg" xmlns:xlink="http://www.w3.org/1999/xlink" x="0px" y="0px"
	 viewBox="-449 251 60 60" style="enable-background:new -449 251 60 60;" xml:space="preserve">
<style type="text/css">
	.st0{fill:#FFFFFF;}
	.st1{fill:none;stroke:#FFFFFF;stroke-width:3;}
</style>
<path class="st0" d="M-402.9,273L-402.9,273c-0.4-1.5-1.6-2.7-3.1-3.1c-2.7-0.7-13.6-0.7-13.6-0.7s-10.8,0-13.6,0.7
	c-1.5,0.4-2.7,1.6-3.1,3.1c-0.7,2.7-0.7,8.5-0.7,8.5s0,5.7,0.7,8.5c0.4,1.5,1.6,2.7,3.1,3.1c2.7,0.7,13.6,0.7,13.6,0.7
	s10.8,0,13.6-0.7c1.5-0.4,2.7-1.6,3.1-3.1c0.7-2.7,0.7-8.5,0.7-8.5S-402.2,275.8-402.9,273z M-423,286.7v-10.4l9.1,5.2L-423,286.7z"
	/>
<rect x="-447.5" y="252.5" class="st1" width="57" height="57"/>
</svg>
